<svg version="1.1" id="Layer_1" xmlns="http://www.w3.org/2000/svg" xmlns:xlink="http://www.w3.org/1999/xlink" x="0px" y="0px"
	 width="100%" viewBox="0 0 1462 166" enable-background="new 0 0 1462 166" xml:space="preserve">
<path fill="#FFFFFF" opacity="1.000000" stroke="none" 
	d="
M1102.000000,167.000000 
	C734.666748,167.000000 367.833557,167.000000 1.000246,167.000000 
	C1.000164,111.666794 1.000164,56.333584 1.000082,1.000189 
	C244.666458,1.000000 488.332916,1.000000 731.999390,1.000000 
	C975.665955,1.000000 1219.332520,1.000000 1462.999268,1.000000 
	C1462.999512,56.333042 1462.999512,111.666084 1462.999756,166.999573 
	C1342.833374,167.000000 1222.666626,167.000000 1102.000000,167.000000 
M544.008667,80.484566 
	C552.466187,71.861305 555.352722,61.854248 553.153931,49.784615 
	C551.104309,38.533787 544.865967,31.459446 534.386108,28.318089 
	C529.011292,26.707001 523.158997,26.202486 517.505981,26.099163 
	C501.846680,25.812952 486.178711,26.000000 470.514160,26.000000 
	C468.748291,26.000000 466.982422,26.000000 465.282593,26.000000 
	C465.282593,64.969818 465.282593,103.371574 465.282593,141.714096 
	C472.974731,141.714096 480.380707,141.714096 488.174896,141.714096 
	C488.174896,109.692444 488.174896,77.954849 488.174896,46.000000 
	C497.879791,46.000000 507.189697,45.984142 516.499573,46.005989 
	C522.017273,46.018932 527.347656,47.284512 529.251282,52.980721 
	C531.156006,58.680344 530.650696,64.435913 526.165039,69.401901 
	C519.829224,76.416191 511.480804,79.014885 502.741394,81.041840 
	C501.454468,81.340317 499.238312,82.236801 499.253906,82.807381 
	C499.364166,86.842308 498.631958,91.716766 500.598450,94.745834 
	C510.084167,109.356972 520.292419,123.501701 530.368896,137.723633 
	C531.790161,139.729553 533.814880,142.646835 535.700134,142.757446 
	C544.722900,143.286835 553.793884,142.994949 563.819336,142.994949 
	C551.083618,125.612236 538.996826,109.115204 527.010071,92.754631 
	C531.423279,89.963844 535.550781,87.471436 539.537842,84.771599 
	C541.028870,83.761971 542.192505,82.268936 544.008667,80.484566 
M266.349182,46.861660 
	C268.601807,48.439640 271.364685,49.609169 273.014160,51.669926 
	C278.622681,58.676891 272.602386,70.769737 265.629852,73.952126 
	C258.725983,77.103188 251.528564,79.611153 243.716782,82.694504 
	C244.029160,85.903503 243.040985,91.010849 245.081909,94.146866 
	C255.369598,109.954597 266.411438,125.273590 277.319092,140.671661 
	C278.131927,141.819077 279.954437,142.864456 281.333038,142.897598 
	C289.801697,143.101166 298.277710,142.999603 308.403381,142.999603 
	C295.573120,125.442650 283.447052,108.849304 271.744507,92.835472 
	C276.095337,89.767326 280.643829,86.737915 285.000702,83.454277 
	C298.606262,73.200256 299.797821,62.197193 296.972046,47.633358 
	C296.184662,43.575455 294.083710,39.350086 291.433258,36.158222 
	C284.534332,27.850004 274.485565,26.404291 264.534149,26.108574 
	C250.223770,25.683325 235.891342,26.000000 221.568314,26.000000 
	C217.794586,26.000000 214.020859,26.000000 210.236923,26.000000 
	C210.236923,64.909920 210.236923,103.295563 210.236923,141.764130 
	C217.544449,141.764130 224.612946,141.764130 232.055084,141.764130 
	C232.055084,109.806587 232.055084,78.082359 232.055084,46.233173 
	C243.538483,46.233173 254.646423,46.233173 266.349182,46.861660 
M48.622475,94.000000 
	C56.622158,94.000008 64.646729,93.614922 72.613129,94.129829 
	C78.315758,94.498421 84.515976,95.191811 86.984100,101.861176 
	C90.116615,110.325890 86.165161,117.773491 77.677467,121.108070 
	C64.490234,126.288979 51.327309,123.655251 38.163456,121.535500 
	C32.853886,120.680504 27.662786,119.089798 22.000305,117.733948 
	C22.000305,124.000900 21.823196,129.657501 22.135057,135.287033 
	C22.205765,136.563385 23.773409,138.547989 24.990072,138.851501 
	C44.603039,143.744324 64.488289,145.258331 84.303833,140.833939 
	C95.750481,138.278168 105.445999,131.965973 108.440773,119.762215 
	C110.134911,112.858551 110.505898,105.284447 109.697952,98.215164 
	C108.970840,91.853073 105.948952,85.989983 100.314064,81.513588 
	C93.372955,75.999519 85.466148,74.542503 77.236229,74.098717 
	C68.927315,73.650673 60.565613,74.248970 52.245411,73.921715 
	C45.506927,73.656670 41.198689,71.010979 39.940022,66.606201 
	C37.310333,57.403446 40.477688,50.392860 51.216656,47.101913 
	C64.075493,43.161343 77.097816,44.909203 89.976112,47.508274 
	C94.898338,48.501663 99.718811,49.999268 104.999504,51.374905 
	C104.999504,44.865856 105.147377,39.207741 104.880661,33.569237 
	C104.824097,32.373482 103.393898,30.391897 102.360092,30.223408 
	C90.677322,28.319345 78.991226,25.926392 67.216797,25.273396 
	C59.401012,24.839941 51.309254,26.421059 43.582691,28.168766 
	C35.769470,29.936073 28.559958,33.117920 23.245768,40.030117 
	C17.756475,47.170071 17.085030,54.993385 16.895573,63.453346 
	C16.465874,82.640907 29.427942,93.819916 48.622475,94.000000 
M166.500000,123.000000 
	C158.402252,123.000000 150.304504,123.000000 142.288666,123.000000 
	C142.288666,113.018898 142.288666,103.613945 142.288666,93.819656 
	C159.646820,93.819656 176.719620,93.819656 193.708862,93.819656 
	C193.708862,87.013794 193.708862,80.607681 193.708862,73.814636 
	C176.348175,73.814636 159.275482,73.814636 142.292953,73.814636 
	C142.292953,64.343437 142.292953,55.271549 142.292953,45.811241 
	C160.322067,45.811241 178.061218,45.811241 195.704742,45.811241 
	C195.704742,39.005146 195.704742,32.598633 195.704742,26.292973 
	C170.340485,26.292973 145.272537,26.292973 120.287041,26.292973 
	C120.287041,65.318527 120.287041,104.050446 120.287041,142.715485 
	C146.309494,142.715485 172.043900,142.715485 197.712784,142.715485 
	C197.712784,136.022064 197.712784,129.616379 197.712784,123.000000 
	C187.451324,123.000000 177.475662,123.000000 166.500000,123.000000 
M307.967041,56.723362 
	C307.981049,57.056366 307.901581,57.428543 308.022400,57.716789 
	C319.536194,85.189545 331.027313,112.672073 342.707916,140.073837 
	C343.278687,141.412872 345.477661,142.787674 346.986786,142.868408 
	C352.966919,143.188385 358.981384,143.156067 364.966034,142.881622 
	C366.330048,142.819077 368.279724,141.569916 368.842499,140.351013 
	C371.658112,134.252853 373.990997,127.934265 376.695251,121.781845 
	C389.527222,92.588112 402.435303,63.427860 415.280304,34.239841 
	C416.395721,31.705250 417.248566,29.055086 418.330963,26.172028 
	C409.131775,26.172028 400.682404,26.172028 392.144775,26.172028 
	C380.546722,54.886642 368.995789,83.484612 357.068634,113.014084 
	C354.460999,107.084557 352.094635,102.094933 350.046082,96.978050 
	C340.884308,74.094002 331.831543,51.166294 322.644745,28.292374 
	C322.260162,27.334732 320.943695,26.119516 320.039307,26.101030 
	C311.768738,25.931986 303.493256,26.001646 294.601135,26.001646 
	C299.087250,36.402779 303.322906,46.223148 307.967041,56.723362 
M902.038086,132.589752 
	C908.372559,116.467476 914.706970,100.345207 921.041382,84.222931 
	C921.424866,84.305222 921.808289,84.387512 922.191772,84.469810 
	C922.191772,103.628029 922.191772,122.786255 922.191772,141.635849 
	C927.804626,141.635849 932.883057,141.635849 937.644226,141.635849 
	C937.644226,111.539291 937.644226,81.807373 937.644226,52.108360 
	C931.634949,52.108360 925.981934,52.108360 920.221863,52.108360 
	C910.604492,73.999886 901.009521,95.840309 891.106934,118.381042 
	C887.970093,111.529953 884.957642,105.022385 882.005310,98.487701 
	C875.405090,83.878975 868.879028,69.236343 862.168823,54.678493 
	C861.628784,53.506821 859.944580,52.189117 858.726013,52.120960 
	C853.622253,51.835499 848.493347,52.000549 843.196472,52.000549 
	C843.196472,82.139259 843.196472,111.869797 843.196472,141.800140 
	C848.463257,141.800140 853.533630,141.800140 859.209839,141.800140 
	C859.209839,122.883888 859.209839,104.155983 859.209839,85.428085 
	C860.356140,86.047829 860.742065,86.728806 861.031555,87.448547 
	C867.363586,103.192749 873.860107,118.874428 879.906189,134.727859 
	C881.831665,139.776596 883.788025,143.340576 890.083496,142.090332 
	C892.797852,141.551285 895.708313,142.000000 898.372192,142.000000 
	C899.636108,138.969193 900.798889,136.180878 902.038086,132.589752 
M1279.554443,123.042915 
	C1283.649658,128.843613 1287.711304,134.668610 1291.881470,140.414902 
	C1292.416626,141.152466 1293.504272,141.908752 1294.354248,141.930038 
	C1299.795776,142.066299 1305.242310,141.999542 1310.777344,141.999542 
	C1310.777344,111.803452 1310.777344,82.075188 1310.777344,52.224098 
	C1305.149048,52.224098 1299.745728,52.224098 1293.957153,52.224098 
	C1293.957153,73.140053 1293.957153,93.836166 1293.957153,115.935509 
	C1287.130737,106.714027 1281.031860,98.639084 1275.109619,90.436676 
	C1266.319092,78.261589 1257.670898,65.983765 1248.895874,53.797352 
	C1248.316528,52.992821 1247.189331,52.110367 1246.292847,52.084015 
	C1240.881226,51.924961 1235.462769,52.004906 1230.346924,52.004906 
	C1230.346924,82.447311 1230.346924,112.176994 1230.346924,141.651199 
	C1236.107544,141.651199 1241.517700,141.651199 1247.097168,141.651199 
	C1247.097168,120.708305 1247.097168,100.113693 1247.097168,78.136864 
	C1249.542480,81.496742 1251.296997,83.878822 1253.021851,86.282188 
	C1261.691772,98.362442 1270.354126,110.448250 1279.554443,123.042915 
M1200.542114,58.958954 
	C1199.621094,58.299011 1198.763672,57.516979 1197.769287,56.997593 
	C1183.968140,49.789368 1169.572876,49.618290 1154.691040,52.918133 
	C1141.266357,55.894905 1132.373779,64.051956 1128.333740,76.663353 
	C1124.605469,88.301102 1124.974731,100.409676 1127.758301,112.462921 
	C1131.350586,128.018143 1140.740845,138.217041 1156.124268,141.297318 
	C1164.914429,143.057404 1174.363525,142.621399 1183.394531,141.814514 
	C1195.511963,140.731827 1205.033691,134.578049 1210.800171,123.518822 
	C1215.947510,113.647125 1216.453979,102.901871 1215.955566,92.105255 
	C1215.361328,79.235168 1211.977051,67.473801 1200.542114,58.958954 
M781.648926,118.000000 
	C788.314209,118.000015 794.979614,118.019264 801.644775,117.989334 
	C803.900879,117.979202 805.262573,118.150894 806.200073,121.062920 
	C808.303894,127.597755 811.310608,133.848938 814.109558,140.144547 
	C814.478210,140.973785 815.768311,141.887314 816.655273,141.911880 
	C822.382690,142.070572 828.116638,141.993118 834.330017,141.993118 
	C821.124695,111.526100 808.222534,81.758331 795.324463,52.000053 
	C789.794250,52.000053 784.460144,51.876122 779.138977,52.084343 
	C777.751587,52.138630 775.683960,52.866459 775.163696,53.904087 
	C772.869873,58.479191 771.011841,63.274014 769.024292,68.001175 
	C762.133118,84.391144 755.251831,100.785301 748.370789,117.179527 
	C744.945251,125.341125 741.528259,133.506348 738.026672,141.862762 
	C744.717834,141.862762 750.700928,141.862762 756.426819,141.862762 
	C765.982117,118.410126 775.452698,95.165573 785.284302,71.034805 
	C789.854553,81.924278 793.984009,91.763542 798.280273,102.000206 
	C793.061829,102.000206 788.399719,101.880104 783.751282,102.079605 
	C782.495056,102.133522 780.573364,102.848732 780.166626,103.785522 
	C778.207031,108.298897 776.661011,112.991814 774.829651,118.000000 
	C777.065918,118.000000 778.882507,118.000000 781.648926,118.000000 
M1448.499146,139.002457 
	C1445.349121,131.815231 1442.156860,124.646202 1439.057129,117.437347 
	C1430.580566,97.722946 1422.064209,78.024879 1413.749878,58.242043 
	C1411.864990,53.757114 1409.634033,50.962582 1404.164185,51.898743 
	C1400.928223,52.452564 1397.494141,51.758984 1394.201294,52.111897 
	C1392.768921,52.265411 1390.722168,53.320782 1390.216064,54.505470 
	C1379.964355,78.500397 1369.893188,102.572441 1359.793335,126.632149 
	C1357.721313,131.568253 1355.679443,136.517014 1353.454224,141.867157 
	C1360.141846,141.867157 1365.941284,141.867157 1371.836548,141.867157 
	C1381.421997,118.339882 1390.974609,94.892944 1400.688110,71.051437 
	C1405.121460,81.559189 1409.399658,91.699089 1413.745728,102.000031 
	C1408.814575,102.000031 1404.152100,101.970673 1399.490601,102.021591 
	C1398.386230,102.033653 1396.528931,101.990379 1396.299927,102.523224 
	C1394.198730,107.415314 1392.380127,112.428802 1390.240967,118.030281 
	C1401.214600,118.030281 1411.006348,118.030281 1420.427368,118.030281 
	C1423.671875,125.793762 1426.726318,133.195374 1429.902954,140.544113 
	C1430.188232,141.203857 1431.256226,141.921768 1431.973755,141.935516 
	C1437.830078,142.047623 1443.689575,141.998627 1449.697510,141.998627 
	C1449.344360,140.860992 1449.156738,140.257019 1448.499146,139.002457 
M980.503601,61.997795 
	C969.250854,88.493439 957.998108,114.989075 946.526733,141.999390 
	C952.384399,141.999390 957.530762,142.124924 962.662109,141.901901 
	C963.796387,141.852615 965.480896,140.818069 965.892029,139.817886 
	C972.038391,124.864510 977.967468,109.822014 984.047974,94.841217 
	C987.182800,87.117783 990.515442,79.474617 994.062927,71.074814 
	C998.546875,81.912155 1002.637573,91.799004 1006.875793,102.042389 
	C1000.752258,102.042389 994.982727,102.042389 989.452271,102.042389 
	C987.473511,107.411728 985.608826,112.471527 983.581726,117.972000 
	C994.083557,117.972000 1003.889465,117.972000 1013.669922,117.972000 
	C1017.065063,126.138062 1020.364624,134.074142 1023.572388,141.789520 
	C1030.089600,141.789520 1036.308716,141.789520 1042.722046,141.789520 
	C1038.728394,132.238693 1034.908936,122.908936 1030.935547,113.645233 
	C1023.609802,96.565460 1016.067566,79.577454 1008.862061,62.447502 
	C1004.504333,52.087650 1004.712708,52.000000 993.694458,52.000000 
	C984.648743,52.000000 984.648743,52.000000 980.503601,61.997795 
M1079.970581,114.547211 
	C1082.319214,111.635597 1084.696289,108.746368 1087.011230,105.808205 
	C1094.752319,95.983116 1101.899658,85.610344 1110.377930,76.471016 
	C1117.260254,69.051910 1117.891602,61.110725 1116.614746,52.314148 
	C1094.616577,52.314148 1072.886963,52.314148 1051.315430,52.314148 
	C1051.315430,57.370434 1051.315430,62.108295 1051.315430,67.257339 
	C1067.302002,67.257339 1082.975952,67.257339 1098.979858,67.257339 
	C1094.171631,72.882851 1089.610596,78.010246 1085.280518,83.325806 
	C1074.078857,97.076942 1062.969604,110.903374 1051.859253,124.728569 
	C1051.089233,125.686737 1050.133789,126.860992 1050.085449,127.970482 
	C1049.885620,132.563995 1050.001587,137.171249 1050.001587,141.738403 
	C1072.609985,141.738403 1094.671997,141.738403 1116.737549,141.738403 
	C1116.737549,136.735092 1116.737549,131.997803 1116.737549,127.110992 
	C1101.515991,127.110992 1086.555176,127.110992 1070.756592,127.110992 
	C1073.887207,122.761391 1076.663940,118.903427 1079.970581,114.547211 
M426.000000,43.501240 
	C426.000000,76.592812 426.000000,109.684380 426.000000,142.713867 
	C433.642273,142.713867 440.714539,142.713867 447.716858,142.713867 
	C447.716858,103.693199 447.716858,64.959328 447.716858,26.286213 
	C440.357819,26.286213 433.284821,26.286213 426.000000,26.286213 
	C426.000000,31.881083 426.000000,37.191452 426.000000,43.501240 
M1327.000000,94.500000 
	C1327.000000,110.261299 1327.000000,126.022598 1327.000000,141.712036 
	C1333.312134,141.712036 1339.050537,141.712036 1344.715088,141.712036 
	C1344.715088,111.689064 1344.715088,81.954926 1344.715088,52.287918 
	C1338.687988,52.287918 1332.949585,52.287918 1327.000000,52.287918 
	C1327.000000,66.216568 1327.000000,79.858284 1327.000000,94.500000 
M594.445923,104.964699 
	C602.470947,113.517372 611.242065,121.004326 623.012451,124.723152 
	C622.757019,122.393974 622.137634,120.329857 621.009583,118.596817 
	C618.404358,114.594460 616.603027,110.860756 619.895996,106.162315 
	C622.639709,102.247643 624.695435,97.850800 626.724731,94.254410 
	C620.254456,88.704636 613.976746,83.319962 607.048096,77.376991 
	C602.342102,83.804413 597.925415,90.225075 593.078552,96.302650 
	C590.415283,99.642151 590.755981,102.032036 594.445923,104.964699 
M680.794739,37.272255 
	C679.849121,36.340519 678.847717,35.458496 677.966980,34.469032 
	C671.967224,27.728886 664.379578,25.293152 655.548889,25.982439 
	C649.468140,26.457075 645.028564,31.070225 645.000000,37.156761 
	C644.953979,46.974586 655.505493,55.861351 667.046204,56.035820 
	C679.057495,56.217403 684.761719,49.974430 680.794739,37.272255 
M654.997864,116.377228 
	C655.768921,112.791481 656.539978,109.205727 657.222046,106.033768 
	C648.974060,103.258995 641.285583,100.672440 633.659912,98.107033 
	C631.489441,102.571167 629.117676,106.945053 627.262451,111.528038 
	C626.577820,113.219261 626.278442,116.380646 627.232300,117.192284 
	C631.253479,120.613968 628.461487,124.448982 628.652039,128.889053 
	C634.863403,130.547409 641.308655,132.334900 647.811096,133.882492 
	C648.353394,134.011566 649.640442,132.655396 649.969299,131.763580 
	C651.742126,126.955772 653.321594,122.076683 654.997864,116.377228 
M664.554871,110.957947 
	C662.727173,118.852722 660.899536,126.747490 658.989258,134.999008 
	C663.127991,134.999008 666.950928,135.263519 670.723083,134.939041 
	C676.885620,134.408951 683.032593,133.585510 684.168518,125.578972 
	C684.300415,124.649406 685.236755,123.652100 686.060486,123.032166 
	C691.343994,119.055664 693.964539,111.601685 691.680908,105.558426 
	C691.243469,104.400658 689.048279,103.001343 687.878601,103.173309 
	C680.396240,104.273376 672.973755,105.781235 664.969177,107.258781 
	C664.969177,107.608704 664.969177,108.883606 664.554871,110.957947 
M616.618164,148.114075 
	C617.600952,148.458908 618.583679,148.803726 619.503906,149.126617 
	C620.035095,144.308746 620.720520,139.941605 620.879822,135.555374 
	C620.929565,134.184204 619.924194,132.066971 618.784302,131.469543 
	C607.056152,125.322647 596.804260,117.382507 588.248291,107.266579 
	C583.018250,116.942421 583.911377,126.194633 591.372864,131.666397 
	C599.262939,137.452393 607.641724,142.571808 616.618164,148.114075 
M667.000000,86.583038 
	C667.000000,90.268158 667.000000,93.953278 667.000000,98.541687 
	C673.633728,97.411575 680.801636,96.300789 687.894226,94.827820 
	C688.686646,94.663254 689.777649,92.248596 689.499329,91.206032 
	C687.476440,83.628952 685.341553,76.066734 682.811768,68.646530 
	C681.578552,65.029190 679.793091,61.383583 674.488220,63.915810 
	C672.380920,64.921677 669.807556,64.951164 667.942749,65.325531 
	C667.627502,72.115257 667.313721,78.873322 667.000000,86.583038 
M643.506958,54.004478 
	C642.608704,52.812801 641.710449,51.621124 640.348755,49.814548 
	C631.996887,56.520538 624.325684,62.684017 616.649353,68.841003 
	C614.484863,70.577095 614.422424,72.250420 616.573975,74.113144 
	C621.342712,78.241684 626.045410,82.446541 630.978027,86.799431 
	C637.424744,76.960777 643.370361,67.886871 649.292786,58.848431 
	C647.264526,57.187035 645.640747,55.856991 643.506958,54.004478 
M662.000000,81.433640 
	C662.644775,75.813034 663.289551,70.192421 663.919189,64.703972 
	C660.944336,63.668583 658.013611,62.891865 655.306763,61.633751 
	C652.900146,60.515217 651.933777,61.170692 650.834656,63.431923 
	C646.627686,72.086670 642.191223,80.629852 637.240356,90.398918 
	C644.855347,92.703972 652.027588,94.875000 659.419128,97.112411 
	C660.449524,91.216148 661.224670,86.780228 662.000000,81.433640 
M598.387512,57.911076 
	C598.166992,55.994335 597.946411,54.077595 597.528625,50.446873 
	C592.392578,55.032173 588.051147,58.828274 583.801514,62.724510 
	C579.561462,66.611870 576.451843,70.897766 578.981873,77.134644 
	C581.064880,82.269440 581.414368,88.261009 585.683228,92.062469 
	C592.016541,84.671921 597.941467,77.758003 603.618042,71.133873 
	C602.046021,66.890427 600.498718,62.713688 598.387512,57.911076 
M629.987305,39.515232 
	C621.600159,41.889076 613.213074,44.262917 603.651672,46.969116 
	C605.859131,53.815926 607.719177,59.585083 609.577698,65.349823 
	C619.720459,59.091145 628.794312,53.492081 638.285461,47.635464 
	C635.405518,45.170860 638.280334,37.901783 629.987305,39.515232 
M690.978577,129.530014 
	C709.621521,119.723541 715.733093,109.426086 710.394775,86.919449 
	C709.641846,87.109535 708.635071,87.054138 708.181824,87.528122 
	C705.096741,90.754219 702.005676,93.992249 699.194885,97.452583 
	C698.324646,98.523979 697.978699,100.296196 697.972839,101.749901 
	C697.936035,110.927444 700.280823,120.823296 689.371155,126.284935 
	C688.109558,126.916542 687.562744,128.976151 686.684570,130.373688 
	C687.021606,130.592773 687.358704,130.811874 687.695740,131.030960 
	C688.576843,130.676727 689.458008,130.322479 690.978577,129.530014 
M704.068481,83.394623 
	C704.906006,81.292465 707.027466,78.590576 706.371460,77.186043 
	C702.285217,68.437912 696.237732,61.071865 688.964294,54.700687 
	C686.840820,57.044651 685.044189,59.027843 682.961609,61.326687 
	C683.176636,61.808350 683.555603,62.671406 683.945984,63.529305 
	C686.670044,69.516327 689.746765,75.371437 692.043213,81.518089 
	C695.858093,91.728622 695.647217,91.807404 704.068481,83.394623 
M605.002747,40.406319 
	C605.717773,40.737129 606.520508,41.471634 607.134766,41.338272 
	C616.548218,39.294487 625.937134,37.137562 635.723877,34.918030 
	C636.254150,33.368931 637.068237,30.990934 638.164001,27.789948 
	C633.488953,27.184635 628.921753,26.157757 624.338318,26.078957 
	C608.643066,25.809118 609.506714,25.992125 605.002747,40.406319 
M646.303406,154.232376 
	C660.742737,155.767776 671.964844,155.870148 676.529358,141.006195 
	C670.359802,141.006195 663.988586,140.913025 657.626343,141.109177 
	C656.699585,141.137741 655.670227,142.431259 654.937439,143.340240 
	C652.191101,146.746887 649.548035,150.236847 646.303406,154.232376 
M643.610901,146.912003 
	C644.510376,144.796509 645.409912,142.681030 646.231567,140.748566 
	C639.636108,138.871658 633.665527,137.172577 626.888000,135.243851 
	C626.205383,140.425461 625.485291,145.891495 624.776001,151.275269 
	C637.092712,155.460266 638.078125,155.240463 643.610901,146.912003 
M706.012939,69.520607 
	C706.829346,70.629524 707.645691,71.738449 708.609863,73.048233 
	C714.746460,55.797100 700.166077,45.507973 689.519226,44.386707 
	C689.519226,47.118206 689.519226,49.862701 689.519226,51.159538 
	C695.246338,57.552429 700.370667,63.272415 706.012939,69.520607 
M579.001465,59.248756 
	C579.090698,59.732067 579.179993,60.215382 579.269287,60.698689 
	C579.849182,60.430527 580.523376,60.274223 580.994385,59.876987 
	C586.069153,55.597473 591.114624,51.283085 596.160034,46.968773 
	C596.757385,46.457954 597.601807,45.993214 597.831116,45.333176 
	C599.686890,39.992317 601.422974,34.609871 603.084839,29.575521 
	C593.914978,31.424961 581.989319,45.370422 579.001465,59.248756 
M632.325256,24.001736 
	C638.298767,26.820454 643.728943,25.745939 648.758850,21.725023 
	C640.548340,12.274954 621.953491,12.996901 616.938416,22.563677 
	C621.660522,23.030046 626.549805,23.512934 632.325256,24.001736 
M576.954041,83.629715 
	C576.400818,81.738106 575.847595,79.846504 575.163818,77.508583 
	C571.329529,88.069290 574.972229,110.854843 580.547485,115.092911 
	C581.885559,105.935387 583.234558,96.463272 577.988953,87.660721 
	C577.436462,86.733574 577.317078,85.548325 576.954041,83.629715 
M693.929016,42.407326 
	C697.544434,44.449390 701.159851,46.491451 705.464661,48.922897 
	C702.526367,41.330597 697.523010,36.140224 691.925842,31.892988 
	C689.700928,30.204662 685.518066,31.096430 682.226624,30.813562 
	C682.069458,31.215759 681.912231,31.617956 681.755066,32.020153 
	C685.976196,34.940331 686.300354,41.967175 693.929016,42.407326 
M648.645569,17.968164 
	C653.142273,21.749390 658.555481,21.481926 664.447754,21.207401 
	C663.472961,18.672062 662.166382,15.579687 660.345276,15.239195 
	C654.514832,14.149072 648.493896,14.078358 641.224304,13.510986 
	C644.342468,15.347382 646.178467,16.428642 648.645569,17.968164 
M684.342163,137.968307 
	C682.435669,140.767960 680.529175,143.567612 678.622742,146.367264 
	C679.245361,146.903397 679.868042,147.439529 680.490723,147.975647 
	C687.561890,141.781693 694.633118,135.587723 701.704346,129.393753 
	C701.276672,128.826828 700.848999,128.259918 700.421326,127.692993 
	C695.271484,130.974884 690.121582,134.256790 684.342163,137.968307 
M680.451965,22.969631 
	C676.894653,21.252756 673.337280,19.535879 668.516235,17.209116 
	C668.832581,20.081060 668.426208,23.358652 669.371460,23.810883 
	C674.450745,26.240826 679.240479,31.876831 685.345703,26.236938 
	C684.189758,25.506910 682.594971,24.499731 680.451965,22.969631 
M715.998047,77.848907 
	C715.437988,75.203445 714.877930,72.557983 714.155090,69.143417 
	C709.888123,77.991150 713.967896,85.345383 714.454285,92.954559 
	C714.969482,92.943649 715.484741,92.932732 715.999939,92.921822 
	C715.999939,88.211830 715.999939,83.501846 715.998047,77.848907 
z"/>
<path fill="#000000" opacity="1.000000" stroke="none" 
	d="
M543.757080,80.740433 
	C542.192505,82.268936 541.028870,83.761971 539.537842,84.771599 
	C535.550781,87.471436 531.423279,89.963844 527.010071,92.754631 
	C538.996826,109.115204 551.083618,125.612236 563.819336,142.994949 
	C553.793884,142.994949 544.722900,143.286835 535.700134,142.757446 
	C533.814880,142.646835 531.790161,139.729553 530.368896,137.723633 
	C520.292419,123.501701 510.084167,109.356972 500.598450,94.745834 
	C498.631958,91.716766 499.364166,86.842308 499.253906,82.807381 
	C499.238312,82.236801 501.454468,81.340317 502.741394,81.041840 
	C511.480804,79.014885 519.829224,76.416191 526.165039,69.401901 
	C530.650696,64.435913 531.156006,58.680344 529.251282,52.980721 
	C527.347656,47.284512 522.017273,46.018932 516.499573,46.005989 
	C507.189697,45.984142 497.879791,46.000000 488.174896,46.000000 
	C488.174896,77.954849 488.174896,109.692444 488.174896,141.714096 
	C480.380707,141.714096 472.974731,141.714096 465.282593,141.714096 
	C465.282593,103.371574 465.282593,64.969818 465.282593,26.000000 
	C466.982422,26.000000 468.748291,26.000000 470.514160,26.000000 
	C486.178711,26.000000 501.846680,25.812952 517.505981,26.099163 
	C523.158997,26.202486 529.011292,26.707001 534.386108,28.318089 
	C544.865967,31.459446 551.104309,38.533787 553.153931,49.784615 
	C555.352722,61.854248 552.466187,71.861305 543.757080,80.740433 
z"/>
<path fill="#000000" opacity="1.000000" stroke="none" 
	d="
M266.051758,46.547417 
	C254.646423,46.233173 243.538483,46.233173 232.055084,46.233173 
	C232.055084,78.082359 232.055084,109.806587 232.055084,141.764130 
	C224.612946,141.764130 217.544449,141.764130 210.236923,141.764130 
	C210.236923,103.295563 210.236923,64.909920 210.236923,26.000000 
	C214.020859,26.000000 217.794586,26.000000 221.568314,26.000000 
	C235.891342,26.000000 250.223770,25.683325 264.534149,26.108574 
	C274.485565,26.404291 284.534332,27.850004 291.433258,36.158222 
	C294.083710,39.350086 296.184662,43.575455 296.972046,47.633358 
	C299.797821,62.197193 298.606262,73.200256 285.000702,83.454277 
	C280.643829,86.737915 276.095337,89.767326 271.744507,92.835472 
	C283.447052,108.849304 295.573120,125.442650 308.403381,142.999603 
	C298.277710,142.999603 289.801697,143.101166 281.333038,142.897598 
	C279.954437,142.864456 278.131927,141.819077 277.319092,140.671661 
	C266.411438,125.273590 255.369598,109.954597 245.081909,94.146866 
	C243.040985,91.010849 244.029160,85.903503 243.716782,82.694504 
	C251.528564,79.611153 258.725983,77.103188 265.629852,73.952126 
	C272.602386,70.769737 278.622681,58.676891 273.014160,51.669926 
	C271.364685,49.609169 268.601807,48.439640 266.051758,46.547417 
z"/>
<path fill="#000000" opacity="1.000000" stroke="none" 
	d="
M48.141464,94.000000 
	C29.427942,93.819916 16.465874,82.640907 16.895573,63.453346 
	C17.085030,54.993385 17.756475,47.170071 23.245768,40.030117 
	C28.559958,33.117920 35.769470,29.936073 43.582691,28.168766 
	C51.309254,26.421059 59.401012,24.839941 67.216797,25.273396 
	C78.991226,25.926392 90.677322,28.319345 102.360092,30.223408 
	C103.393898,30.391897 104.824097,32.373482 104.880661,33.569237 
	C105.147377,39.207741 104.999504,44.865856 104.999504,51.374905 
	C99.718811,49.999268 94.898338,48.501663 89.976112,47.508274 
	C77.097816,44.909203 64.075493,43.161343 51.216656,47.101913 
	C40.477688,50.392860 37.310333,57.403446 39.940022,66.606201 
	C41.198689,71.010979 45.506927,73.656670 52.245411,73.921715 
	C60.565613,74.248970 68.927315,73.650673 77.236229,74.098717 
	C85.466148,74.542503 93.372955,75.999519 100.314064,81.513588 
	C105.948952,85.989983 108.970840,91.853073 109.697952,98.215164 
	C110.505898,105.284447 110.134911,112.858551 108.440773,119.762215 
	C105.445999,131.965973 95.750481,138.278168 84.303833,140.833939 
	C64.488289,145.258331 44.603039,143.744324 24.990072,138.851501 
	C23.773409,138.547989 22.205765,136.563385 22.135057,135.287033 
	C21.823196,129.657501 22.000305,124.000900 22.000305,117.733948 
	C27.662786,119.089798 32.853886,120.680504 38.163456,121.535500 
	C51.327309,123.655251 64.490234,126.288979 77.677467,121.108070 
	C86.165161,117.773491 90.116615,110.325890 86.984100,101.861176 
	C84.515976,95.191811 78.315758,94.498421 72.613129,94.129829 
	C64.646729,93.614922 56.622158,94.000008 48.141464,94.000000 
z"/>
<path fill="#000000" opacity="1.000000" stroke="none" 
	d="
M167.000000,123.000000 
	C177.475662,123.000000 187.451324,123.000000 197.712784,123.000000 
	C197.712784,129.616379 197.712784,136.022064 197.712784,142.715485 
	C172.043900,142.715485 146.309494,142.715485 120.287041,142.715485 
	C120.287041,104.050446 120.287041,65.318527 120.287041,26.292973 
	C145.272537,26.292973 170.340485,26.292973 195.704742,26.292973 
	C195.704742,32.598633 195.704742,39.005146 195.704742,45.811241 
	C178.061218,45.811241 160.322067,45.811241 142.292953,45.811241 
	C142.292953,55.271549 142.292953,64.343437 142.292953,73.814636 
	C159.275482,73.814636 176.348175,73.814636 193.708862,73.814636 
	C193.708862,80.607681 193.708862,87.013794 193.708862,93.819656 
	C176.719620,93.819656 159.646820,93.819656 142.288666,93.819656 
	C142.288666,103.613945 142.288666,113.018898 142.288666,123.000000 
	C150.304504,123.000000 158.402252,123.000000 167.000000,123.000000 
z"/>
<path fill="#000000" opacity="1.000000" stroke="none" 
	d="
M307.762817,56.383438 
	C303.322906,46.223148 299.087250,36.402779 294.601135,26.001646 
	C303.493256,26.001646 311.768738,25.931986 320.039307,26.101030 
	C320.943695,26.119516 322.260162,27.334732 322.644745,28.292374 
	C331.831543,51.166294 340.884308,74.094002 350.046082,96.978050 
	C352.094635,102.094933 354.460999,107.084557 357.068634,113.014084 
	C368.995789,83.484612 380.546722,54.886642 392.144775,26.172028 
	C400.682404,26.172028 409.131775,26.172028 418.330963,26.172028 
	C417.248566,29.055086 416.395721,31.705250 415.280304,34.239841 
	C402.435303,63.427860 389.527222,92.588112 376.695251,121.781845 
	C373.990997,127.934265 371.658112,134.252853 368.842499,140.351013 
	C368.279724,141.569916 366.330048,142.819077 364.966034,142.881622 
	C358.981384,143.156067 352.966919,143.188385 346.986786,142.868408 
	C345.477661,142.787674 343.278687,141.412872 342.707916,140.073837 
	C331.027313,112.672073 319.536194,85.189545 308.022400,57.716789 
	C307.901581,57.428543 307.981049,57.056366 307.762817,56.383438 
z"/>
<path fill="#000000" opacity="1.000000" stroke="none" 
	d="
M901.999878,132.991165 
	C900.798889,136.180878 899.636108,138.969193 898.372192,142.000000 
	C895.708313,142.000000 892.797852,141.551285 890.083496,142.090332 
	C883.788025,143.340576 881.831665,139.776596 879.906189,134.727859 
	C873.860107,118.874428 867.363586,103.192749 861.031555,87.448547 
	C860.742065,86.728806 860.356140,86.047829 859.209839,85.428085 
	C859.209839,104.155983 859.209839,122.883888 859.209839,141.800140 
	C853.533630,141.800140 848.463257,141.800140 843.196472,141.800140 
	C843.196472,111.869797 843.196472,82.139259 843.196472,52.000549 
	C848.493347,52.000549 853.622253,51.835499 858.726013,52.120960 
	C859.944580,52.189117 861.628784,53.506821 862.168823,54.678493 
	C868.879028,69.236343 875.405090,83.878975 882.005310,98.487701 
	C884.957642,105.022385 887.970093,111.529953 891.106934,118.381042 
	C901.009521,95.840309 910.604492,73.999886 920.221863,52.108360 
	C925.981934,52.108360 931.634949,52.108360 937.644226,52.108360 
	C937.644226,81.807373 937.644226,111.539291 937.644226,141.635849 
	C932.883057,141.635849 927.804626,141.635849 922.191772,141.635849 
	C922.191772,122.786255 922.191772,103.628029 922.191772,84.469810 
	C921.808289,84.387512 921.424866,84.305222 921.041382,84.222931 
	C914.706970,100.345207 908.372559,116.467476 901.999878,132.991165 
z"/>
<path fill="#000000" opacity="1.000000" stroke="none" 
	d="
M1279.286865,122.787506 
	C1270.354126,110.448250 1261.691772,98.362442 1253.021851,86.282188 
	C1251.296997,83.878822 1249.542480,81.496742 1247.097168,78.136864 
	C1247.097168,100.113693 1247.097168,120.708305 1247.097168,141.651199 
	C1241.517700,141.651199 1236.107544,141.651199 1230.346924,141.651199 
	C1230.346924,112.176994 1230.346924,82.447311 1230.346924,52.004906 
	C1235.462769,52.004906 1240.881226,51.924961 1246.292847,52.084015 
	C1247.189331,52.110367 1248.316528,52.992821 1248.895874,53.797352 
	C1257.670898,65.983765 1266.319092,78.261589 1275.109619,90.436676 
	C1281.031860,98.639084 1287.130737,106.714027 1293.957153,115.935509 
	C1293.957153,93.836166 1293.957153,73.140053 1293.957153,52.224098 
	C1299.745728,52.224098 1305.149048,52.224098 1310.777344,52.224098 
	C1310.777344,82.075188 1310.777344,111.803452 1310.777344,141.999542 
	C1305.242310,141.999542 1299.795776,142.066299 1294.354248,141.930038 
	C1293.504272,141.908752 1292.416626,141.152466 1291.881470,140.414902 
	C1287.711304,134.668610 1283.649658,128.843613 1279.286865,122.787506 
z"/>
<path fill="#000000" opacity="1.000000" stroke="none" 
	d="
M1200.910767,58.991783 
	C1211.977051,67.473801 1215.361328,79.235168 1215.955566,92.105255 
	C1216.453979,102.901871 1215.947510,113.647125 1210.800171,123.518822 
	C1205.033691,134.578049 1195.511963,140.731827 1183.394531,141.814514 
	C1174.363525,142.621399 1164.914429,143.057404 1156.124268,141.297318 
	C1140.740845,138.217041 1131.350586,128.018143 1127.758301,112.462921 
	C1124.974731,100.409676 1124.605469,88.301102 1128.333740,76.663353 
	C1132.373779,64.051956 1141.266357,55.894905 1154.691040,52.918133 
	C1169.572876,49.618290 1183.968140,49.789368 1197.769287,56.997593 
	C1198.763672,57.516979 1199.621094,58.299011 1200.910767,58.991783 
M1171.437622,66.003204 
	C1169.027466,66.335754 1166.571655,66.476929 1164.216187,67.038933 
	C1158.539551,68.393394 1153.459961,70.512367 1149.703125,75.572868 
	C1143.191162,84.344376 1143.348267,94.318871 1144.284302,104.196526 
	C1144.891602,110.606293 1147.054932,116.833954 1152.644287,121.335869 
	C1159.696899,127.016373 1167.376953,128.382828 1176.185669,127.123962 
	C1184.465576,125.940666 1190.362671,122.149551 1194.041992,114.695534 
	C1198.156860,106.359528 1198.515259,97.758629 1197.132690,88.646202 
	C1195.578613,78.403526 1189.640137,70.310181 1179.941162,67.465607 
	C1177.473633,66.741959 1174.864014,66.503151 1171.437622,66.003204 
z"/>
<path fill="#000000" opacity="1.000000" stroke="none" 
	d="
M781.174072,118.000000 
	C778.882507,118.000000 777.065918,118.000000 774.829651,118.000000 
	C776.661011,112.991814 778.207031,108.298897 780.166626,103.785522 
	C780.573364,102.848732 782.495056,102.133522 783.751282,102.079605 
	C788.399719,101.880104 793.061829,102.000206 798.280273,102.000206 
	C793.984009,91.763542 789.854553,81.924278 785.284302,71.034805 
	C775.452698,95.165573 765.982117,118.410126 756.426819,141.862762 
	C750.700928,141.862762 744.717834,141.862762 738.026672,141.862762 
	C741.528259,133.506348 744.945251,125.341125 748.370789,117.179527 
	C755.251831,100.785301 762.133118,84.391144 769.024292,68.001175 
	C771.011841,63.274014 772.869873,58.479191 775.163696,53.904087 
	C775.683960,52.866459 777.751587,52.138630 779.138977,52.084343 
	C784.460144,51.876122 789.794250,52.000053 795.324463,52.000053 
	C808.222534,81.758331 821.124695,111.526100 834.330017,141.993118 
	C828.116638,141.993118 822.382690,142.070572 816.655273,141.911880 
	C815.768311,141.887314 814.478210,140.973785 814.109558,140.144547 
	C811.310608,133.848938 808.303894,127.597755 806.200073,121.062920 
	C805.262573,118.150894 803.900879,117.979202 801.644775,117.989334 
	C794.979614,118.019264 788.314209,118.000015 781.174072,118.000000 
z"/>
<path fill="#000000" opacity="1.000000" stroke="none" 
	d="
M1448.734131,139.327759 
	C1449.156738,140.257019 1449.344360,140.860992 1449.697510,141.998627 
	C1443.689575,141.998627 1437.830078,142.047623 1431.973755,141.935516 
	C1431.256226,141.921768 1430.188232,141.203857 1429.902954,140.544113 
	C1426.726318,133.195374 1423.671875,125.793762 1420.427368,118.030281 
	C1411.006348,118.030281 1401.214600,118.030281 1390.240967,118.030281 
	C1392.380127,112.428802 1394.198730,107.415314 1396.299927,102.523224 
	C1396.528931,101.990379 1398.386230,102.033653 1399.490601,102.021591 
	C1404.152100,101.970673 1408.814575,102.000031 1413.745728,102.000031 
	C1409.399658,91.699089 1405.121460,81.559189 1400.688110,71.051437 
	C1390.974609,94.892944 1381.421997,118.339882 1371.836548,141.867157 
	C1365.941284,141.867157 1360.141846,141.867157 1353.454224,141.867157 
	C1355.679443,136.517014 1357.721313,131.568253 1359.793335,126.632149 
	C1369.893188,102.572441 1379.964355,78.500397 1390.216064,54.505470 
	C1390.722168,53.320782 1392.768921,52.265411 1394.201294,52.111897 
	C1397.494141,51.758984 1400.928223,52.452564 1404.164185,51.898743 
	C1409.634033,50.962582 1411.864990,53.757114 1413.749878,58.242043 
	C1422.064209,78.024879 1430.580566,97.722946 1439.057129,117.437347 
	C1442.156860,124.646202 1445.349121,131.815231 1448.734131,139.327759 
z"/>
<path fill="#000000" opacity="1.000000" stroke="none" 
	d="
M980.734619,61.675568 
	C984.648743,52.000000 984.648743,52.000000 993.694458,52.000000 
	C1004.712708,52.000000 1004.504333,52.087650 1008.862061,62.447502 
	C1016.067566,79.577454 1023.609802,96.565460 1030.935547,113.645233 
	C1034.908936,122.908936 1038.728394,132.238693 1042.722046,141.789520 
	C1036.308716,141.789520 1030.089600,141.789520 1023.572388,141.789520 
	C1020.364624,134.074142 1017.065063,126.138062 1013.669922,117.972000 
	C1003.889465,117.972000 994.083557,117.972000 983.581726,117.972000 
	C985.608826,112.471527 987.473511,107.411728 989.452271,102.042389 
	C994.982727,102.042389 1000.752258,102.042389 1006.875793,102.042389 
	C1002.637573,91.799004 998.546875,81.912155 994.062927,71.074814 
	C990.515442,79.474617 987.182800,87.117783 984.047974,94.841217 
	C977.967468,109.822014 972.038391,124.864510 965.892029,139.817886 
	C965.480896,140.818069 963.796387,141.852615 962.662109,141.901901 
	C957.530762,142.124924 952.384399,141.999390 946.526733,141.999390 
	C957.998108,114.989075 969.250854,88.493439 980.734619,61.675568 
z"/>
<path fill="#000000" opacity="1.000000" stroke="none" 
	d="
M1079.705566,114.796341 
	C1076.663940,118.903427 1073.887207,122.761391 1070.756592,127.110992 
	C1086.555176,127.110992 1101.515991,127.110992 1116.737549,127.110992 
	C1116.737549,131.997803 1116.737549,136.735092 1116.737549,141.738403 
	C1094.671997,141.738403 1072.609985,141.738403 1050.001587,141.738403 
	C1050.001587,137.171249 1049.885620,132.563995 1050.085449,127.970482 
	C1050.133789,126.860992 1051.089233,125.686737 1051.859253,124.728569 
	C1062.969604,110.903374 1074.078857,97.076942 1085.280518,83.325806 
	C1089.610596,78.010246 1094.171631,72.882851 1098.979858,67.257339 
	C1082.975952,67.257339 1067.302002,67.257339 1051.315430,67.257339 
	C1051.315430,62.108295 1051.315430,57.370434 1051.315430,52.314148 
	C1072.886963,52.314148 1094.616577,52.314148 1116.614746,52.314148 
	C1117.891602,61.110725 1117.260254,69.051910 1110.377930,76.471016 
	C1101.899658,85.610344 1094.752319,95.983116 1087.011230,105.808205 
	C1084.696289,108.746368 1082.319214,111.635597 1079.705566,114.796341 
z"/>
<path fill="#000000" opacity="1.000000" stroke="none" 
	d="
M426.000000,43.001534 
	C426.000000,37.191452 426.000000,31.881083 426.000000,26.286213 
	C433.284821,26.286213 440.357819,26.286213 447.716858,26.286213 
	C447.716858,64.959328 447.716858,103.693199 447.716858,142.713867 
	C440.714539,142.713867 433.642273,142.713867 426.000000,142.713867 
	C426.000000,109.684380 426.000000,76.592812 426.000000,43.001534 
z"/>
<path fill="#000000" opacity="1.000000" stroke="none" 
	d="
M1327.000000,94.000000 
	C1327.000000,79.858284 1327.000000,66.216568 1327.000000,52.287918 
	C1332.949585,52.287918 1338.687988,52.287918 1344.715088,52.287918 
	C1344.715088,81.954926 1344.715088,111.689064 1344.715088,141.712036 
	C1339.050537,141.712036 1333.312134,141.712036 1327.000000,141.712036 
	C1327.000000,126.022598 1327.000000,110.261299 1327.000000,94.000000 
z"/>
<path fill="#000000" opacity="1.000000" stroke="none" 
	d="
M594.200195,104.697388 
	C590.755981,102.032036 590.415283,99.642151 593.078552,96.302650 
	C597.925415,90.225075 602.342102,83.804413 607.048096,77.376991 
	C613.976746,83.319962 620.254456,88.704636 626.724731,94.254410 
	C624.695435,97.850800 622.639709,102.247643 619.895996,106.162315 
	C616.603027,110.860756 618.404358,114.594460 621.009583,118.596817 
	C622.137634,120.329857 622.757019,122.393974 623.012451,124.723152 
	C611.242065,121.004326 602.470947,113.517372 594.200195,104.697388 
z"/>
<path fill="#000000" opacity="1.000000" stroke="none" 
	d="
M680.891235,37.661591 
	C684.761719,49.974430 679.057495,56.217403 667.046204,56.035820 
	C655.505493,55.861351 644.953979,46.974586 645.000000,37.156761 
	C645.028564,31.070225 649.468140,26.457075 655.548889,25.982439 
	C664.379578,25.293152 671.967224,27.728886 677.966980,34.469032 
	C678.847717,35.458496 679.849121,36.340519 680.891235,37.661591 
z"/>
<path fill="#000000" opacity="1.000000" stroke="none" 
	d="
M654.982788,116.799706 
	C653.321594,122.076683 651.742126,126.955772 649.969299,131.763580 
	C649.640442,132.655396 648.353394,134.011566 647.811096,133.882492 
	C641.308655,132.334900 634.863403,130.547409 628.652039,128.889053 
	C628.461487,124.448982 631.253479,120.613968 627.232300,117.192284 
	C626.278442,116.380646 626.577820,113.219261 627.262451,111.528038 
	C629.117676,106.945053 631.489441,102.571167 633.659912,98.107033 
	C641.285583,100.672440 648.974060,103.258995 657.222046,106.033768 
	C656.539978,109.205727 655.768921,112.791481 654.982788,116.799706 
z"/>
<path fill="#000000" opacity="1.000000" stroke="none" 
	d="
M664.762024,110.558228 
	C664.969177,108.883606 664.969177,107.608704 664.969177,107.258781 
	C672.973755,105.781235 680.396240,104.273376 687.878601,103.173309 
	C689.048279,103.001343 691.243469,104.400658 691.680908,105.558426 
	C693.964539,111.601685 691.343994,119.055664 686.060486,123.032166 
	C685.236755,123.652100 684.300415,124.649406 684.168518,125.578972 
	C683.032593,133.585510 676.885620,134.408951 670.723083,134.939041 
	C666.950928,135.263519 663.127991,134.999008 658.989258,134.999008 
	C660.899536,126.747490 662.727173,118.852722 664.762024,110.558228 
z"/>
<path fill="#000000" opacity="1.000000" stroke="none" 
	d="
M616.212585,148.048233 
	C607.641724,142.571808 599.262939,137.452393 591.372864,131.666397 
	C583.911377,126.194633 583.018250,116.942421 588.252380,107.261368 
	C596.804260,117.382507 607.056152,125.322647 618.784302,131.469543 
	C619.924194,132.066971 620.929565,134.184204 620.879822,135.555374 
	C620.720520,139.941605 620.035095,144.308746 619.503906,149.126617 
	C618.583679,148.803726 617.600952,148.458908 616.212585,148.048233 
z"/>
<path fill="#000000" opacity="1.000000" stroke="none" 
	d="
M667.000000,86.107208 
	C667.313721,78.873322 667.627502,72.115257 667.942749,65.325531 
	C669.807556,64.951164 672.380920,64.921677 674.488220,63.915810 
	C679.793091,61.383583 681.578552,65.029190 682.811768,68.646530 
	C685.341553,76.066734 687.476440,83.628952 689.499329,91.206032 
	C689.777649,92.248596 688.686646,94.663254 687.894226,94.827820 
	C680.801636,96.300789 673.633728,97.411575 667.000000,98.541687 
	C667.000000,93.953278 667.000000,90.268158 667.000000,86.107208 
z"/>
<path fill="#000000" opacity="1.000000" stroke="none" 
	d="
M643.761963,54.265717 
	C645.640747,55.856991 647.264526,57.187035 649.292786,58.848431 
	C643.370361,67.886871 637.424744,76.960777 630.978027,86.799431 
	C626.045410,82.446541 621.342712,78.241684 616.573975,74.113144 
	C614.422424,72.250420 614.484863,70.577095 616.649353,68.841003 
	C624.325684,62.684017 631.996887,56.520538 640.348755,49.814548 
	C641.710449,51.621124 642.608704,52.812801 643.761963,54.265717 
z"/>
<path fill="#000000" opacity="1.000000" stroke="none" 
	d="
M661.999939,81.888977 
	C661.224670,86.780228 660.449524,91.216148 659.419128,97.112411 
	C652.027588,94.875000 644.855347,92.703972 637.240356,90.398918 
	C642.191223,80.629852 646.627686,72.086670 650.834656,63.431923 
	C651.933777,61.170692 652.900146,60.515217 655.306763,61.633751 
	C658.013611,62.891865 660.944336,63.668583 663.919189,64.703972 
	C663.289551,70.192421 662.644775,75.813034 661.999939,81.888977 
z"/>
<path fill="#000000" opacity="1.000000" stroke="none" 
	d="
M598.669434,58.224014 
	C600.498718,62.713688 602.046021,66.890427 603.618042,71.133873 
	C597.941467,77.758003 592.016541,84.671921 585.683228,92.062469 
	C581.414368,88.261009 581.064880,82.269440 578.981873,77.134644 
	C576.451843,70.897766 579.561462,66.611870 583.801514,62.724510 
	C588.051147,58.828274 592.392578,55.032173 597.528625,50.446873 
	C597.946411,54.077595 598.166992,55.994335 598.669434,58.224014 
z"/>
<path fill="#000000" opacity="1.000000" stroke="none" 
	d="
M630.348328,39.277184 
	C638.280334,37.901783 635.405518,45.170860 638.285461,47.635464 
	C628.794312,53.492081 619.720459,59.091145 609.577698,65.349823 
	C607.719177,59.585083 605.859131,53.815926 603.651672,46.969116 
	C613.213074,44.262917 621.600159,41.889076 630.348328,39.277184 
z"/>
<path fill="#000000" opacity="1.000000" stroke="none" 
	d="
M690.658813,129.749115 
	C689.458008,130.322479 688.576843,130.676727 687.695740,131.030960 
	C687.358704,130.811874 687.021606,130.592773 686.684570,130.373688 
	C687.562744,128.976151 688.109558,126.916542 689.371155,126.284935 
	C700.280823,120.823296 697.936035,110.927444 697.972839,101.749901 
	C697.978699,100.296196 698.324646,98.523979 699.194885,97.452583 
	C702.005676,93.992249 705.096741,90.754219 708.181824,87.528122 
	C708.635071,87.054138 709.641846,87.109535 710.394775,86.919449 
	C715.733093,109.426086 709.621521,119.723541 690.658813,129.749115 
z"/>
<path fill="#000000" opacity="1.000000" stroke="none" 
	d="
M703.825073,83.670677 
	C695.647217,91.807404 695.858093,91.728622 692.043213,81.518089 
	C689.746765,75.371437 686.670044,69.516327 683.945984,63.529305 
	C683.555603,62.671406 683.176636,61.808350 682.961609,61.326687 
	C685.044189,59.027843 686.840820,57.044651 688.964294,54.700687 
	C696.237732,61.071865 702.285217,68.437912 706.371460,77.186043 
	C707.027466,78.590576 704.906006,81.292465 703.825073,83.670677 
z"/>
<path fill="#000000" opacity="1.000000" stroke="none" 
	d="
M605.002686,39.993782 
	C609.506714,25.992125 608.643066,25.809118 624.338318,26.078957 
	C628.921753,26.157757 633.488953,27.184635 638.164001,27.789948 
	C637.068237,30.990934 636.254150,33.368931 635.723877,34.918030 
	C625.937134,37.137562 616.548218,39.294487 607.134766,41.338272 
	C606.520508,41.471634 605.717773,40.737129 605.002686,39.993782 
z"/>
<path fill="#000000" opacity="1.000000" stroke="none" 
	d="
M646.584839,153.963959 
	C649.548035,150.236847 652.191101,146.746887 654.937439,143.340240 
	C655.670227,142.431259 656.699585,141.137741 657.626343,141.109177 
	C663.988586,140.913025 670.359802,141.006195 676.529358,141.006195 
	C671.964844,155.870148 660.742737,155.767776 646.584839,153.963959 
z"/>
<path fill="#000000" opacity="1.000000" stroke="none" 
	d="
M643.329468,147.168884 
	C638.078125,155.240463 637.092712,155.460266 624.776001,151.275269 
	C625.485291,145.891495 626.205383,140.425461 626.888000,135.243851 
	C633.665527,137.172577 639.636108,138.871658 646.231567,140.748566 
	C645.409912,142.681030 644.510376,144.796509 643.329468,147.168884 
z"/>
<path fill="#000000" opacity="1.000000" stroke="none" 
	d="
M705.753906,69.256500 
	C700.370667,63.272415 695.246338,57.552429 689.519226,51.159538 
	C689.519226,49.862701 689.519226,47.118206 689.519226,44.386707 
	C700.166077,45.507973 714.746460,55.797100 708.609863,73.048233 
	C707.645691,71.738449 706.829346,70.629524 705.753906,69.256500 
z"/>
<path fill="#000000" opacity="1.000000" stroke="none" 
	d="
M579.000854,58.845062 
	C581.989319,45.370422 593.914978,31.424961 603.084839,29.575521 
	C601.422974,34.609871 599.686890,39.992317 597.831116,45.333176 
	C597.601807,45.993214 596.757385,46.457954 596.160034,46.968773 
	C591.114624,51.283085 586.069153,55.597473 580.994385,59.876987 
	C580.523376,60.274223 579.849182,60.430527 579.269287,60.698692 
	C579.179993,60.215382 579.090698,59.732067 579.000854,58.845062 
z"/>
<path fill="#000000" opacity="1.000000" stroke="none" 
	d="
M631.882202,23.998779 
	C626.549805,23.512934 621.660522,23.030046 616.938416,22.563677 
	C621.953491,12.996901 640.548340,12.274954 648.758850,21.725023 
	C643.728943,25.745939 638.298767,26.820454 631.882202,23.998779 
z"/>
<path fill="#000000" opacity="1.000000" stroke="none" 
	d="
M576.975403,84.056274 
	C577.317078,85.548325 577.436462,86.733574 577.988953,87.660721 
	C583.234558,96.463272 581.885559,105.935387 580.547485,115.092911 
	C574.972229,110.854843 571.329529,88.069290 575.163818,77.508583 
	C575.847595,79.846504 576.400818,81.738106 576.975403,84.056274 
z"/>
<path fill="#000000" opacity="1.000000" stroke="none" 
	d="
M693.581299,42.218342 
	C686.300354,41.967175 685.976196,34.940331 681.755066,32.020153 
	C681.912231,31.617956 682.069458,31.215759 682.226624,30.813562 
	C685.518066,31.096430 689.700928,30.204662 691.925842,31.892988 
	C697.523010,36.140224 702.526367,41.330597 705.464661,48.922897 
	C701.159851,46.491451 697.544434,44.449390 693.581299,42.218342 
z"/>
<path fill="#000000" opacity="1.000000" stroke="none" 
	d="
M648.330017,17.739035 
	C646.178467,16.428642 644.342468,15.347382 641.224304,13.510986 
	C648.493896,14.078358 654.514832,14.149072 660.345276,15.239195 
	C662.166382,15.579687 663.472961,18.672062 664.447754,21.207401 
	C658.555481,21.481926 653.142273,21.749390 648.330017,17.739035 
z"/>
<path fill="#000000" opacity="1.000000" stroke="none" 
	d="
M684.656921,137.753494 
	C690.121582,134.256790 695.271484,130.974884 700.421326,127.692993 
	C700.848999,128.259918 701.276672,128.826828 701.704346,129.393753 
	C694.633118,135.587723 687.561890,141.781693 680.490723,147.975647 
	C679.868042,147.439529 679.245361,146.903397 678.622742,146.367264 
	C680.529175,143.567612 682.435669,140.767960 684.656921,137.753494 
z"/>
<path fill="#000000" opacity="1.000000" stroke="none" 
	d="
M680.726074,23.231091 
	C682.594971,24.499731 684.189758,25.506910 685.345703,26.236938 
	C679.240479,31.876831 674.450745,26.240826 669.371460,23.810883 
	C668.426208,23.358652 668.832581,20.081060 668.516235,17.209116 
	C673.337280,19.535879 676.894653,21.252756 680.726074,23.231091 
z"/>
<path fill="#000000" opacity="1.000000" stroke="none" 
	d="
M715.999023,78.320381 
	C715.999939,83.501846 715.999939,88.211830 715.999939,92.921822 
	C715.484741,92.932732 714.969482,92.943649 714.454285,92.954559 
	C713.967896,85.345383 709.888123,77.991150 714.155090,69.143417 
	C714.877930,72.557983 715.437988,75.203445 715.999023,78.320381 
z"/>
<path fill="#FFFFFF" opacity="1.000000" stroke="none" 
	d="
M1171.878662,66.022392 
	C1174.864014,66.503151 1177.473633,66.741959 1179.941162,67.465607 
	C1189.640137,70.310181 1195.578613,78.403526 1197.132690,88.646202 
	C1198.515259,97.758629 1198.156860,106.359528 1194.041992,114.695534 
	C1190.362671,122.149551 1184.465576,125.940666 1176.185669,127.123962 
	C1167.376953,128.382828 1159.696899,127.016373 1152.644287,121.335869 
	C1147.054932,116.833954 1144.891602,110.606293 1144.284302,104.196526 
	C1143.348267,94.318871 1143.191162,84.344376 1149.703125,75.572868 
	C1153.459961,70.512367 1158.539551,68.393394 1164.216187,67.038933 
	C1166.571655,66.476929 1169.027466,66.335754 1171.878662,66.022392 
z"/>
</svg>